<?xml version="1.0" encoding="UTF-8" standalone="no"?>
<!-- Created with Inkscape (http://www.inkscape.org/) -->

<svg
   xmlns:dc="http://purl.org/dc/elements/1.1/"
   xmlns:cc="http://creativecommons.org/ns#"
   xmlns:rdf="http://www.w3.org/1999/02/22-rdf-syntax-ns#"
   xmlns:svg="http://www.w3.org/2000/svg"
   xmlns="http://www.w3.org/2000/svg"
   xmlns:sodipodi="http://sodipodi.sourceforge.net/DTD/sodipodi-0.dtd"
   xmlns:inkscape="http://www.inkscape.org/namespaces/inkscape"
   width="48px"
   height="48px"
   id="svg5130"
   version="1.1"
   inkscape:version="0.48.3.1 r9886"
   sodipodi:docname="add_group.svg">
  <defs
     id="defs5132" />
  <sodipodi:namedview
     id="base"
     pagecolor="#ffffff"
     bordercolor="#666666"
     borderopacity="1.0"
     inkscape:pageopacity="0.0"
     inkscape:pageshadow="2"
     inkscape:zoom="7"
     inkscape:cx="24"
     inkscape:cy="24"
     inkscape:current-layer="layer1"
     showgrid="true"
     inkscape:grid-bbox="true"
     inkscape:document-units="px"
     inkscape:window-width="1261"
     inkscape:window-height="862"
     inkscape:window-x="2090"
     inkscape:window-y="83"
     inkscape:window-maximized="0" />
  <metadata
     id="metadata5135">
    <rdf:RDF>
      <cc:Work
         rdf:about="">
        <dc:format>image/svg+xml</dc:format>
        <dc:type
           rdf:resource="http://purl.org/dc/dcmitype/StillImage" />
        <dc:title />
      </cc:Work>
    </rdf:RDF>
  </metadata>
  <g
     id="layer1"
     inkscape:label="Layer 1"
     inkscape:groupmode="layer">
    <g
       transform="matrix(0.87618772,0,0,0.87618772,-208.24858,-468.82918)"
       id="Group">
      <g
         id="g1016">
        <path
           style="fill:#335c33"
           inkscape:connector-curvature="0"
           d="m 280.86,557.558 c -0.353,0 -0.365,-0.199 -0.365,-0.701 0,-0.615 0.081,-0.955 0.081,-0.955 1.055,0 2.65,-1.762 3.164,-3.385 0.289,-0.914 1.922,-1.08 1.922,-3.502 0,-2.123 -0.938,-1.535 -0.938,-1.693 0,-0.158 0,-2.309 0,-3.572 0,-2.342 -2.093,-6.959 -8.689,-6.959 -6.598,0 -8.688,4.617 -8.688,6.959 0,0.848 0,2.08 0,2.857 2.993,1.982 4.395,5.133 4.395,7.641 v 2.123 c 0.536,0.629 0.939,1.611 0.939,3.141 0,2.768 -1.456,4.043 -2.154,4.656 -0.01,0.008 -0.02,0.016 -0.027,0.023 -0.254,0.654 -0.641,1.375 -1.133,2.057 2.746,1.07 5.018,3.09 6.503,5.158 h 0.165 14.711 c 0,0 0,-3.377 0,-5.852 0,-1.934 -4.153,-7.996 -9.886,-7.996 z"
           id="path1018" />
        <path
           style="fill:#335c33"
           inkscape:connector-curvature="0"
           d="m 265.283,567.942 c -0.353,0 -0.365,-0.199 -0.365,-0.701 0,-0.615 0.081,-0.955 0.081,-0.955 1.056,0 2.651,-1.76 3.164,-3.385 0.289,-0.914 1.923,-1.08 1.923,-3.502 0,-2.123 -0.939,-1.535 -0.939,-1.693 0,-0.158 0,-2.309 0,-3.572 0,-2.342 -2.092,-6.959 -8.689,-6.959 -6.596,0 -8.687,4.617 -8.687,6.959 0,1.264 0,3.414 0,3.572 0,0.158 -0.939,-0.43 -0.939,1.693 0,2.422 1.632,2.588 1.921,3.502 0.514,1.625 2.109,3.385 3.164,3.385 0,0 0.082,0.34 0.082,0.955 0,0.502 -0.014,0.701 -0.366,0.701 -5.733,0 -9.886,6.063 -9.886,7.996 0,2.473 0,5.852 0,5.852 h 14.711 14.713 c 0,0 0,-3.379 0,-5.852 -0.002,-1.933 -4.155,-7.996 -9.888,-7.996 z"
           id="path1020" />
      </g>
    </g>
    <path
       sodipodi:type="arc"
       style="color:#000000;fill:#ffffff;fill-opacity:1;fill-rule:nonzero;stroke:#000000;stroke-width:1;stroke-linecap:butt;stroke-linejoin:miter;stroke-miterlimit:4;stroke-opacity:0;stroke-dasharray:none;stroke-dashoffset:0;marker:none;visibility:visible;display:inline;overflow:visible;enable-background:accumulate"
       id="path3056"
       sodipodi:cx="-21.571428"
       sodipodi:cy="7.2857141"
       sodipodi:rx="11.571428"
       sodipodi:ry="12.142858"
       d="m -10,7.2857141 a 11.571428,12.142858 0 1 1 -23.142857,0 11.571428,12.142858 0 1 1 23.142857,0 z"
       transform="translate(33.714286,28.285714)" />
    <g
       transform="matrix(0.48888889,0,0,0.48888889,-237.65336,-209.00902)"
       id="Add"
       style="fill:#71c837;fill-opacity:1">
      <path
         style="fill:#71c837;fill-rule:evenodd;fill-opacity:1"
         inkscape:connector-curvature="0"
         clip-rule="evenodd"
         d="m 509.778,477.486 c -12.426,0 -22.5,10.072 -22.5,22.5 0,12.426 10.074,22.5 22.5,22.5 12.428,0 22.5,-10.074 22.5,-22.5 0,-12.427 -10.072,-22.5 -22.5,-22.5 z m 11.5,25 c 0,0.549 -0.451,1 -1,1 h -6 c -0.551,0 -1.001,0.449 -1.001,1 v 6 c 0,0.549 -0.45,1 -1,1 h -5 c -0.55,0 -1,-0.451 -1,-1 v -6 c 0,-0.551 -0.45,-1 -1,-1 h -6 c -0.55,0 -1,-0.451 -1,-1 v -5 c 0,-0.551 0.45,-1 1,-1 h 6 c 0.55,0 1,-0.451 1,-1 v -6 c 0,-0.551 0.45,-1 1,-1 h 5 c 0.55,0 1,0.449 1,1 v 6 c 0,0.549 0.45,1 1.001,1 h 6 c 0.549,0 1,0.449 1,1 v 5 z"
         id="path7552" />
    </g>
  </g>
</svg>
