<?xml version="1.0" encoding="UTF-8" standalone="no"?>
<!-- Created with Inkscape (http://www.inkscape.org/) -->

<svg
   xmlns:dc="http://purl.org/dc/elements/1.1/"
   xmlns:cc="http://creativecommons.org/ns#"
   xmlns:rdf="http://www.w3.org/1999/02/22-rdf-syntax-ns#"
   xmlns:svg="http://www.w3.org/2000/svg"
   xmlns="http://www.w3.org/2000/svg"
   xmlns:sodipodi="http://sodipodi.sourceforge.net/DTD/sodipodi-0.dtd"
   xmlns:inkscape="http://www.inkscape.org/namespaces/inkscape"
   width="32px"
   height="32px"
   id="svg3791"
   version="1.1"
   inkscape:version="0.48.2 r9819"
   sodipodi:docname="Nouveau document 3">
  <defs
     id="defs3793" />
  <sodipodi:namedview
     id="base"
     pagecolor="#ffffff"
     bordercolor="#666666"
     borderopacity="1.0"
     inkscape:pageopacity="0.0"
     inkscape:pageshadow="2"
     inkscape:zoom="11.197802"
     inkscape:cx="16"
     inkscape:cy="16"
     inkscape:current-layer="layer1"
     showgrid="true"
     inkscape:grid-bbox="true"
     inkscape:document-units="px"
     inkscape:window-width="1920"
     inkscape:window-height="1056"
     inkscape:window-x="0"
     inkscape:window-y="24"
     inkscape:window-maximized="1" />
  <metadata
     id="metadata3796">
    <rdf:RDF>
      <cc:Work
         rdf:about="">
        <dc:format>image/svg+xml</dc:format>
        <dc:type
           rdf:resource="http://purl.org/dc/dcmitype/StillImage" />
        <dc:title></dc:title>
      </cc:Work>
    </rdf:RDF>
  </metadata>
  <g
     id="layer1"
     inkscape:label="Layer 1"
     inkscape:groupmode="layer">
    <g
       transform="matrix(0.6854269,0,0,0.6854269,-5.3410671,-366.77452)"
       id="Alarm">
      <g
         id="g8217">
        <path
           style="fill:#333333"
           inkscape:connector-curvature="0"
           d="m 43.052,574.702 c 3.369,-3.402 5.453,-8.08 5.453,-13.246 0,-10.398 -8.43,-18.828 -18.828,-18.828 -10.398,0 -18.826,8.43 -18.826,18.828 0,5.256 2.156,10.002 5.629,13.418 l -1.758,1.797 c -1.164,1.189 -1.143,3.096 0.047,4.26 0.584,0.574 1.346,0.859 2.107,0.859 0.781,0 1.563,-0.303 2.152,-0.906 l 2.445,-2.5 c 2.482,1.205 5.26,1.9 8.203,1.9 3.039,0 5.896,-0.736 8.438,-2.014 l 2.557,2.613 c 0.59,0.604 1.371,0.906 2.152,0.906 0.762,0 1.523,-0.285 2.107,-0.859 1.191,-1.164 1.211,-3.07 0.047,-4.26 l -1.925,-1.968 z m -13.375,-0.443 c -7.061,0 -12.801,-5.744 -12.801,-12.803 0,-7.061 5.74,-12.803 12.801,-12.803 7.061,0 12.803,5.742 12.803,12.803 -10e-4,7.059 -5.743,12.803 -12.803,12.803 z"
           id="path8219" />
        <g
           id="g8221">
          <path
             style="fill:#333333"
             inkscape:connector-curvature="0"
             d="m 36.456,562.962 h -8.285 v -10.543 c 0,-0.832 0.674,-1.506 1.506,-1.506 0.834,0 1.508,0.674 1.508,1.506 v 7.531 h 5.271 c 0.832,0 1.506,0.674 1.506,1.506 0,0.832 -0.674,1.506 -1.506,1.506 l 0,0 z"
             id="path8223" />
        </g>
        <path
           style="fill:#333333"
           inkscape:connector-curvature="0"
           d="m 13.036,538.083 c -4.855,2.803 -5.238,8.719 -5.238,8.719 -0.082,1.24 0.734,1.746 1.811,1.125 l 13.664,-7.891 c 1.076,-0.621 1.047,-1.58 -0.066,-2.129 -0.001,0 -5.317,-2.627 -10.171,0.176 z"
           id="path8225" />
        <path
           style="fill:#333333"
           inkscape:connector-curvature="0"
           d="m 46.319,538.083 c 4.855,2.803 5.236,8.719 5.236,8.719 0.082,1.24 -0.736,1.746 -1.811,1.125 L 36.08,540.036 c -1.076,-0.621 -1.045,-1.58 0.068,-2.129 10e-4,0 5.318,-2.627 10.171,0.176 z"
           id="path8227" />
      </g>
    </g>
  </g>
</svg>
