<?xml version="1.0" encoding="UTF-8" standalone="no"?>
<!-- Created with Inkscape (http://www.inkscape.org/) -->

<svg
   xmlns:dc="http://purl.org/dc/elements/1.1/"
   xmlns:cc="http://creativecommons.org/ns#"
   xmlns:rdf="http://www.w3.org/1999/02/22-rdf-syntax-ns#"
   xmlns:svg="http://www.w3.org/2000/svg"
   xmlns="http://www.w3.org/2000/svg"
   xmlns:sodipodi="http://sodipodi.sourceforge.net/DTD/sodipodi-0.dtd"
   xmlns:inkscape="http://www.inkscape.org/namespaces/inkscape"
   width="32px"
   height="32px"
   id="svg2998"
   version="1.1"
   inkscape:version="0.48.2 r9819"
   sodipodi:docname="Nouveau document 2">
  <defs
     id="defs3000" />
  <sodipodi:namedview
     id="base"
     pagecolor="#ffffff"
     bordercolor="#666666"
     borderopacity="1.0"
     inkscape:pageopacity="0.0"
     inkscape:pageshadow="2"
     inkscape:zoom="11.197802"
     inkscape:cx="16"
     inkscape:cy="16"
     inkscape:current-layer="layer1"
     showgrid="true"
     inkscape:grid-bbox="true"
     inkscape:document-units="px"
     inkscape:window-width="1920"
     inkscape:window-height="1056"
     inkscape:window-x="0"
     inkscape:window-y="24"
     inkscape:window-maximized="1" />
  <metadata
     id="metadata3003">
    <rdf:RDF>
      <cc:Work
         rdf:about="">
        <dc:format>image/svg+xml</dc:format>
        <dc:type
           rdf:resource="http://purl.org/dc/dcmitype/StillImage" />
        <dc:title></dc:title>
      </cc:Work>
    </rdf:RDF>
  </metadata>
  <g
     id="layer1"
     inkscape:label="Layer 1"
     inkscape:groupmode="layer">
    <g
       transform="matrix(0.66662388,0,0,0.66481184,-245.41976,-75.404342)"
       id="Attachment">
      <g
         id="g7740">
        <path
           style="fill:#333333"
           inkscape:connector-curvature="0"
           d="m 374.192,161.556 c -1.619,0 -3.152,-0.607 -4.269,-1.707 -1.237,-1.221 -1.877,-2.961 -1.755,-4.776 l 0.501,-7.477 c 0.198,-2.952 1.959,-6.933 4.009,-9.065 l 20.588,-21.415 c 0.854,-0.89 2.268,-0.916 3.154,-0.063 0.886,0.853 0.916,2.266 0.063,3.154 l -20.589,21.416 c -1.347,1.401 -2.644,4.331 -2.772,6.271 l -0.502,7.477 c -0.035,0.526 0.119,0.988 0.436,1.3 0.317,0.312 0.776,0.465 1.306,0.417 l 6.095,-0.496 c 1.936,-0.158 4.842,-1.497 6.219,-2.865 l 21.382,-21.251 c 0.413,-0.411 0.64,-0.957 0.637,-1.537 -0.005,-0.58 -0.236,-1.123 -0.655,-1.529 l -4.043,-3.92 c -0.874,-0.847 -2.334,-0.832 -3.189,0.037 l -16.287,16.555 c -0.512,0.521 -0.809,1.177 -0.794,1.759 0.007,0.303 0.097,0.537 0.268,0.693 0.524,0.485 1.872,0.332 2.826,-0.589 l 12.685,-12.247 c 0.886,-0.856 2.297,-0.831 3.154,0.056 0.855,0.886 0.83,2.298 -0.057,3.153 l -12.684,12.248 c -2.605,2.517 -6.623,2.811 -8.952,0.656 -1.06,-0.979 -1.664,-2.352 -1.7,-3.865 -0.043,-1.788 0.713,-3.608 2.072,-4.992 l 16.289,-16.556 c 2.582,-2.623 6.83,-2.675 9.475,-0.111 l 4.043,3.92 c 1.285,1.246 2,2.917 2.01,4.705 0.012,1.788 -0.682,3.467 -1.952,4.729 l -21.382,21.25 c -2.098,2.086 -6.053,3.907 -9.002,4.148 l -6.094,0.496 c -0.18,0.013 -0.358,0.021 -0.534,0.021 l 0,0 z"
           id="path7742" />
      </g>
    </g>
  </g>
</svg>
