<?xml version="1.0" encoding="UTF-8" standalone="no"?>
<!-- Created with Inkscape (http://www.inkscape.org/) -->

<svg
   xmlns:dc="http://purl.org/dc/elements/1.1/"
   xmlns:cc="http://creativecommons.org/ns#"
   xmlns:rdf="http://www.w3.org/1999/02/22-rdf-syntax-ns#"
   xmlns:svg="http://www.w3.org/2000/svg"
   xmlns="http://www.w3.org/2000/svg"
   xmlns:sodipodi="http://sodipodi.sourceforge.net/DTD/sodipodi-0.dtd"
   xmlns:inkscape="http://www.inkscape.org/namespaces/inkscape"
   width="32px"
   height="32px"
   id="svg3000"
   version="1.1"
   inkscape:version="0.48.2 r9819"
   sodipodi:docname="Nouveau document 2">
  <defs
     id="defs3002" />
  <sodipodi:namedview
     id="base"
     pagecolor="#ffffff"
     bordercolor="#666666"
     borderopacity="1.0"
     inkscape:pageopacity="0.0"
     inkscape:pageshadow="2"
     inkscape:zoom="11.197802"
     inkscape:cx="16"
     inkscape:cy="16"
     inkscape:current-layer="layer1"
     showgrid="true"
     inkscape:grid-bbox="true"
     inkscape:document-units="px"
     inkscape:window-width="1920"
     inkscape:window-height="1056"
     inkscape:window-x="0"
     inkscape:window-y="24"
     inkscape:window-maximized="1" />
  <metadata
     id="metadata3005">
    <rdf:RDF>
      <cc:Work
         rdf:about="">
        <dc:format>image/svg+xml</dc:format>
        <dc:type
           rdf:resource="http://purl.org/dc/dcmitype/StillImage" />
        <dc:title></dc:title>
      </cc:Work>
    </rdf:RDF>
  </metadata>
  <g
     id="layer1"
     inkscape:label="Layer 1"
     inkscape:groupmode="layer">
    <g
       transform="matrix(0.66665185,0,0,0.66665185,-366.41253,-396.09716)"
       id="Bookmarks">
      <g
         id="g7488">
        <path
           style="fill:#333333"
           inkscape:connector-curvature="0"
           d="m 583.523,634.251 c 0,0.621 -0.508,1.131 -1.129,1.131 H 557.54 c -0.621,0 -1.131,-0.51 -1.131,-1.131 v -27.113 c 0,-0.621 0.51,-1.129 1.131,-1.129 h 10.072 v -6.777 H 550.76 c -0.621,0 -1.129,0.508 -1.129,1.129 v 40.67 c 0,0.621 0.508,1.129 1.129,1.129 h 38.41 c 0.621,0 1.129,-0.508 1.129,-1.129 v -40.67 c 0,-0.621 -0.508,-1.129 -1.129,-1.129 h -5.648 v 35.019 z"
           id="path7490" />
        <path
           style="fill:#333333"
           inkscape:connector-curvature="0"
           d="m 581.264,617.493 c 0,0.621 -0.396,0.811 -0.879,0.42 l -3.891,-3.145 c -0.482,-0.391 -1.273,-0.391 -1.758,0 l -3.891,3.145 c -0.482,0.391 -0.879,0.201 -0.879,-0.42 v -19.205 c 0,-0.621 0.51,-1.129 1.131,-1.129 h 9.037 c 0.621,0 1.129,0.508 1.129,1.129 v 19.205 z"
           id="path7492" />
      </g>
    </g>
  </g>
</svg>
