<?xml version="1.0" encoding="UTF-8" standalone="no"?>
<svg
   xmlns:dc="http://purl.org/dc/elements/1.1/"
   xmlns:cc="http://creativecommons.org/ns#"
   xmlns:rdf="http://www.w3.org/1999/02/22-rdf-syntax-ns#"
   xmlns:svg="http://www.w3.org/2000/svg"
   xmlns="http://www.w3.org/2000/svg"
   xmlns:xlink="http://www.w3.org/1999/xlink"
   xmlns:sodipodi="http://sodipodi.sourceforge.net/DTD/sodipodi-0.dtd"
   xmlns:inkscape="http://www.inkscape.org/namespaces/inkscape"
   version="1.1"
   width="40"
   height="40"
   viewBox="0 0 200 200"
   id="svg3026"
   inkscape:version="0.48.3.1 r9886"
   sodipodi:docname="cogs.svg">
  <metadata
     id="metadata3039">
    <rdf:RDF>
      <cc:Work
         rdf:about="">
        <dc:format>image/svg+xml</dc:format>
        <dc:type
           rdf:resource="http://purl.org/dc/dcmitype/StillImage" />
        <dc:title></dc:title>
      </cc:Work>
    </rdf:RDF>
  </metadata>
  <sodipodi:namedview
     pagecolor="#ffffff"
     bordercolor="#666666"
     borderopacity="1"
     objecttolerance="10"
     gridtolerance="10"
     guidetolerance="10"
     inkscape:pageopacity="0"
     inkscape:pageshadow="2"
     inkscape:window-width="640"
     inkscape:window-height="480"
     id="namedview3037"
     showgrid="false"
     fit-margin-top="0"
     fit-margin-left="0"
     fit-margin-right="0"
     fit-margin-bottom="0"
     inkscape:zoom="2.36"
     inkscape:cx="35"
     inkscape:cy="38"
     inkscape:window-x="65"
     inkscape:window-y="24"
     inkscape:window-maximized="0"
     inkscape:current-layer="svg3026" />
  <defs
     id="defs3028">
    <path
       id="cog"
       transform="scale(0.4,0.4)"
       d="m 213,0 -4,39 -5,39 -20,9 -20,9 -32,-26 -31,-25 -27,27 -27,27 25,31 25,32 -9,19 -9,19 -35,5 c -20,3 -37,5 -40,6 -3,1 -4,12 -4,39 l 0,37 39,4 c 24,3 40,6 40,8 0,2 3,12 8,21 l 8,18 -25,30 -25,31 27,27 27,27 30,-23 30,-24 18,9 c 10,5 20,10 22,10 1,1 4,16 7,34 2,18 4,34 5,37 1,3 11,4 38,4 l 38,0 4,-36 c 3,-28 5,-37 10,-38 3,-1 13,-5 23,-10 l 17,-8 29,24 30,23 26,-27 c 20,-20 26,-28 24,-31 -2,-3 -13,-16 -23,-29 l -20,-25 9,-18 c 5,-10 8,-20 8,-22 0,-4 8,-6 52,-11 l 22,-3 1,-38 1,-38 -38,-4 c -23,-3 -38,-6 -38,-8 0,-2 -3,-12 -8,-22 l -9,-19 24,-29 24,-30 L 428,74 401,47 371,71 341,95 320,86 299,77 294,40 289,2 251,1 213,0 z m 37,170 c 44,0 80,36 80,80 0,44 -36,80 -80,80 -44,0 -80,-36 -80,-80 0,-44 36,-80 80,-80 z"
       inkscape:connector-curvature="0"
       style="fill:#8b0000" />
  </defs>
  <use
     xlink:href="#cog"
     id="use3035"
     x="0"
     y="0"
     width="350"
     height="500" />
</svg>
