<?xml version="1.0" encoding="UTF-8" standalone="no"?>
<!-- Created with Inkscape (http://www.inkscape.org/) -->

<svg
   xmlns:dc="http://purl.org/dc/elements/1.1/"
   xmlns:cc="http://creativecommons.org/ns#"
   xmlns:rdf="http://www.w3.org/1999/02/22-rdf-syntax-ns#"
   xmlns:svg="http://www.w3.org/2000/svg"
   xmlns="http://www.w3.org/2000/svg"
   xmlns:sodipodi="http://sodipodi.sourceforge.net/DTD/sodipodi-0.dtd"
   xmlns:inkscape="http://www.inkscape.org/namespaces/inkscape"
   width="48px"
   height="48px"
   id="svg4572"
   version="1.1"
   inkscape:version="0.48.2 r9819"
   sodipodi:docname="Nouveau document 9">
  <defs
     id="defs4574" />
  <sodipodi:namedview
     id="base"
     pagecolor="#ffffff"
     bordercolor="#666666"
     borderopacity="1.0"
     inkscape:pageopacity="0.0"
     inkscape:pageshadow="2"
     inkscape:zoom="7"
     inkscape:cx="24"
     inkscape:cy="24"
     inkscape:current-layer="layer1"
     showgrid="true"
     inkscape:grid-bbox="true"
     inkscape:document-units="px"
     inkscape:window-width="955"
     inkscape:window-height="833"
     inkscape:window-x="1920"
     inkscape:window-y="24"
     inkscape:window-maximized="0" />
  <metadata
     id="metadata4577">
    <rdf:RDF>
      <cc:Work
         rdf:about="">
        <dc:format>image/svg+xml</dc:format>
        <dc:type
           rdf:resource="http://purl.org/dc/dcmitype/StillImage" />
        <dc:title></dc:title>
      </cc:Work>
    </rdf:RDF>
  </metadata>
  <g
     id="layer1"
     inkscape:label="Layer 1"
     inkscape:groupmode="layer">
    <g
       transform="translate(-126.24722,-114.70679)"
       id="Date_-_Month">
      <g
         id="g1269">
        <path
           style="fill:#4f5433"
           inkscape:connector-curvature="0"
           d="m 165.965,140.275 h -5.514 c -1.412,0 -2.182,-0.512 -2.182,-2.266 0,-1.58 0.854,-2.008 3.078,-2.437 l 1.582,-0.341 c 4.744,-1.027 3.42,-5.9 7.053,-5.9 1.367,0 2.479,0.599 2.479,2.906 v 24.281 c 0,2.224 -0.857,3.762 -3.248,3.762 -2.395,0 -3.248,-1.538 -3.248,-3.762 v -16.243 z"
           id="path1271" />
        <path
           style="fill:#4f5433"
           inkscape:connector-curvature="0"
           d="m 152.144,143.609 c 2.396,-1.28 3.636,-3.248 3.636,-5.982 0,-4.104 -2.688,-8.201 -9.91,-8.287 v 5.146 c 2.115,0.119 3.926,1.308 3.926,3.739 0,1.963 -1.114,3.206 -3.252,3.332 -2.436,0.127 -3.717,0.597 -3.717,2.822 0,1.965 2.35,2.178 3.547,2.307 2.948,0.3 3.846,1.796 3.846,3.849 0,2.649 -1.709,4.615 -4.914,4.615 -5.899,0 -3.85,-5.258 -7.65,-5.258 -1.754,0 -3.035,1.238 -3.035,2.993 0,2.394 2.52,7.396 10.557,7.396 6.328,0 11.541,-3.251 11.541,-10.002 -0.002,-3.206 -1.369,-5.771 -4.575,-6.67 z"
           id="path1273" />
        <path
           style="fill:#4f5433"
           inkscape:connector-curvature="0"
           d="m 139.733,121.795 v -2.557 c 0,-0.848 -0.687,-1.534 -1.534,-1.534 -0.847,0 -1.534,0.687 -1.534,1.534 v 2.557 h -3.068 v -2.557 c 0,-0.848 -0.687,-1.534 -1.534,-1.534 -0.847,0 -1.533,0.687 -1.533,1.534 v 2.557 h -3.068 v 16.364 h 15.34 v -16.364 h -3.069 z m 1.023,14.318 h -11.25 v -9.205 h 11.25 v 9.205 z"
           id="path1275" />
      </g>
    </g>
  </g>
</svg>
