<?xml version="1.0" encoding="UTF-8" standalone="no"?>
<!-- Created with Inkscape (http://www.inkscape.org/) -->

<svg
   xmlns:dc="http://purl.org/dc/elements/1.1/"
   xmlns:cc="http://creativecommons.org/ns#"
   xmlns:rdf="http://www.w3.org/1999/02/22-rdf-syntax-ns#"
   xmlns:svg="http://www.w3.org/2000/svg"
   xmlns="http://www.w3.org/2000/svg"
   xmlns:sodipodi="http://sodipodi.sourceforge.net/DTD/sodipodi-0.dtd"
   xmlns:inkscape="http://www.inkscape.org/namespaces/inkscape"
   width="48px"
   height="48px"
   id="svg4741"
   version="1.1"
   inkscape:version="0.48.2 r9819"
   sodipodi:docname="Nouveau document 18">
  <defs
     id="defs4743" />
  <sodipodi:namedview
     id="base"
     pagecolor="#ffffff"
     bordercolor="#666666"
     borderopacity="1.0"
     inkscape:pageopacity="0.0"
     inkscape:pageshadow="2"
     inkscape:zoom="7"
     inkscape:cx="24"
     inkscape:cy="24"
     inkscape:current-layer="layer1"
     showgrid="true"
     inkscape:grid-bbox="true"
     inkscape:document-units="px"
     inkscape:window-width="779"
     inkscape:window-height="630"
     inkscape:window-x="1920"
     inkscape:window-y="24"
     inkscape:window-maximized="0" />
  <metadata
     id="metadata4746">
    <rdf:RDF>
      <cc:Work
         rdf:about="">
        <dc:format>image/svg+xml</dc:format>
        <dc:type
           rdf:resource="http://purl.org/dc/dcmitype/StillImage" />
        <dc:title></dc:title>
      </cc:Work>
    </rdf:RDF>
  </metadata>
  <g
     id="layer1"
     inkscape:label="Layer 1"
     inkscape:groupmode="layer">
    <g
       transform="translate(-125.96,-295.2555)"
       id="Date_-_today">
      <g
         id="g1238">
        <path
           style="fill:#4f5433"
           inkscape:connector-curvature="0"
           d="m 170.173,313.401 c 0.574,0 1.041,-0.47 1.041,-1.041 v -8.29 c 0,-0.573 -0.467,-1.042 -1.041,-1.042 h -8.844 v -4.19 c 0,-1.146 -0.939,-2.083 -2.086,-2.083 h -2.084 c -1.146,0 -2.082,0.937 -2.082,2.083 v 4.19 h -11.348 v -4.19 c 0,-1.146 -0.938,-2.083 -2.084,-2.083 h -2.082 c -1.146,0 -2.086,0.937 -2.086,2.083 v 4.19 h -8.844 c -0.574,0 -1.041,0.47 -1.041,1.042 v 8.29 c 0,0.571 0.467,1.041 1.041,1.041 h 41.54 z"
           id="path1240" />
        <path
           style="fill:#4f5433"
           inkscape:connector-curvature="0"
           d="m 141.763,325.963 c 0,0.281 -0.229,0.51 -0.51,0.51 h -11.207 c -0.279,0 -0.51,-0.229 -0.51,-0.51 v -10.188 c 0,-0.28 0.229,-0.509 0.51,-0.509 h 11.207 c 0.281,0 0.51,0.229 0.51,0.509 v 10.188 z"
           id="path1242" />
        <path
           style="fill:#4f5433"
           inkscape:connector-curvature="0"
           d="m 141.763,339.208 c 0,0.28 -0.229,0.509 -0.51,0.509 h -11.207 c -0.279,0 -0.51,-0.229 -0.51,-0.509 V 329.02 c 0,-0.281 0.229,-0.509 0.51,-0.509 h 11.207 c 0.281,0 0.51,0.229 0.51,0.509 v 10.188 z"
           id="path1244" />
        <path
           style="fill:#4f5433"
           inkscape:connector-curvature="0"
           d="m 169.271,326.474 v 12.225 h -14.264 v -12.225 h 14.264 m 0,-3.057 h -14.264 c -1.688,0 -3.057,1.368 -3.057,3.057 v 12.225 c 0,1.688 1.367,3.057 3.057,3.057 h 14.264 c 1.688,0 3.057,-1.368 3.057,-3.057 v -12.225 c -0.003,-1.69 -1.37,-3.057 -3.057,-3.057 l 0,0 z"
           id="path1246" />
        <path
           style="fill:#4f5433"
           inkscape:connector-curvature="0"
           d="m 169.271,321.378 c 0.35,0 0.689,0.036 1.02,0.103 v -5.706 c 0,-0.28 -0.23,-0.509 -0.51,-0.509 h -11.207 c -0.281,0 -0.512,0.229 -0.512,0.509 v 5.604 l 11.209,-0.001 0,0 z"
           id="path1248" />
        <path
           style="fill:#4f5433"
           inkscape:connector-curvature="0"
           d="m 155.007,321.378 h 1.02 v -5.604 c 0,-0.28 -0.229,-0.509 -0.51,-0.509 H 144.31 c -0.279,0 -0.51,0.229 -0.51,0.509 v 10.188 c 0,0.281 0.23,0.51 0.51,0.51 h 5.604 c -10e-4,-2.813 2.278,-5.094 5.093,-5.094 z"
           id="path1250" />
        <path
           style="fill:#4f5433"
           inkscape:connector-curvature="0"
           d="M 149.913,338.698 V 328.51 h -5.605 c -0.279,0 -0.508,0.229 -0.508,0.509 v 10.188 c 0,0.28 0.229,0.509 0.508,0.509 h 5.707 c -0.067,-0.329 -0.102,-0.669 -0.102,-1.018 z"
           id="path1252" />
      </g>
    </g>
  </g>
</svg>
