<?xml version="1.0" encoding="UTF-8" standalone="no"?>
<!-- Created with Inkscape (http://www.inkscape.org/) -->

<svg
   xmlns:dc="http://purl.org/dc/elements/1.1/"
   xmlns:cc="http://creativecommons.org/ns#"
   xmlns:rdf="http://www.w3.org/1999/02/22-rdf-syntax-ns#"
   xmlns:svg="http://www.w3.org/2000/svg"
   xmlns="http://www.w3.org/2000/svg"
   xmlns:sodipodi="http://sodipodi.sourceforge.net/DTD/sodipodi-0.dtd"
   xmlns:inkscape="http://www.inkscape.org/namespaces/inkscape"
   width="48px"
   height="48px"
   id="svg5230"
   version="1.1"
   inkscape:version="0.48.2 r9819"
   sodipodi:docname="Nouveau document 43">
  <defs
     id="defs5232" />
  <sodipodi:namedview
     id="base"
     pagecolor="#ffffff"
     bordercolor="#666666"
     borderopacity="1.0"
     inkscape:pageopacity="0.0"
     inkscape:pageshadow="2"
     inkscape:zoom="7"
     inkscape:cx="24"
     inkscape:cy="24"
     inkscape:current-layer="layer1"
     showgrid="true"
     inkscape:grid-bbox="true"
     inkscape:document-units="px"
     inkscape:window-width="983"
     inkscape:window-height="705"
     inkscape:window-x="1920"
     inkscape:window-y="24"
     inkscape:window-maximized="0" />
  <metadata
     id="metadata5235">
    <rdf:RDF>
      <cc:Work
         rdf:about="">
        <dc:format>image/svg+xml</dc:format>
        <dc:type
           rdf:resource="http://purl.org/dc/dcmitype/StillImage" />
        <dc:title></dc:title>
      </cc:Work>
    </rdf:RDF>
  </metadata>
  <g
     id="layer1"
     inkscape:label="Layer 1"
     inkscape:groupmode="layer">
    <g
       transform="translate(-186.21235,-353.92729)"
       id="Directions">
      <path
         style="fill:#451c54"
         inkscape:connector-curvature="0"
         d="m 232.048,376.949 -20.714,-20.714 c -0.695,-0.695 -1.834,-0.695 -2.529,0 l -20.714,20.714 c -0.695,0.695 -0.695,1.833 0,2.528 l 20.714,20.714 c 0.695,0.695 1.834,0.695 2.529,0 l 20.714,-20.714 c 0.695,-0.695 0.695,-1.833 0,-2.528 z m -12.214,-0.361 -6.357,4.954 c -0.775,0.605 -1.41,0.294 -1.41,-0.688 v -2.699 H 209 c -0.492,0 -0.895,0.402 -0.895,0.894 v 7.142 c 0,0.491 -0.402,0.894 -0.895,0.894 h -3.575 c -0.491,0 -0.894,-0.403 -0.894,-0.894 v -12.506 c 0,-0.491 0.402,-0.894 0.894,-0.894 h 8.431 v -2.665 c 0,-0.983 0.635,-1.293 1.41,-0.689 l 6.357,4.955 c 0.777,0.603 0.777,1.591 0.001,2.196 z"
         id="path1131" />
    </g>
  </g>
</svg>
