<?xml version="1.0" encoding="UTF-8" standalone="no"?>
<!-- Created with Inkscape (http://www.inkscape.org/) -->

<svg
   xmlns:dc="http://purl.org/dc/elements/1.1/"
   xmlns:cc="http://creativecommons.org/ns#"
   xmlns:rdf="http://www.w3.org/1999/02/22-rdf-syntax-ns#"
   xmlns:svg="http://www.w3.org/2000/svg"
   xmlns="http://www.w3.org/2000/svg"
   xmlns:sodipodi="http://sodipodi.sourceforge.net/DTD/sodipodi-0.dtd"
   xmlns:inkscape="http://www.inkscape.org/namespaces/inkscape"
   width="32px"
   height="32px"
   id="svg3004"
   version="1.1"
   inkscape:version="0.48.2 r9819"
   sodipodi:docname="Nouveau document 2">
  <defs
     id="defs3006" />
  <sodipodi:namedview
     id="base"
     pagecolor="#ffffff"
     bordercolor="#666666"
     borderopacity="1.0"
     inkscape:pageopacity="0.0"
     inkscape:pageshadow="2"
     inkscape:zoom="11.197802"
     inkscape:cx="16"
     inkscape:cy="16"
     inkscape:current-layer="layer1"
     showgrid="true"
     inkscape:grid-bbox="true"
     inkscape:document-units="px"
     inkscape:window-width="1920"
     inkscape:window-height="1056"
     inkscape:window-x="0"
     inkscape:window-y="24"
     inkscape:window-maximized="1" />
  <metadata
     id="metadata3009">
    <rdf:RDF>
      <cc:Work
         rdf:about="">
        <dc:format>image/svg+xml</dc:format>
        <dc:type
           rdf:resource="http://purl.org/dc/dcmitype/StillImage" />
        <dc:title></dc:title>
      </cc:Work>
    </rdf:RDF>
  </metadata>
  <g
     id="layer1"
     inkscape:label="Layer 1"
     inkscape:groupmode="layer">
    <g
       transform="matrix(0.66663704,0,0,0.66666667,-364.96178,-75.662)"
       id="Zoom_page">
      <g
         id="g7532">
        <path
           style="fill:#333333"
           inkscape:connector-curvature="0"
           d="m 564.624,117.671 c 0.646,-0.647 0.428,-1.178 -0.488,-1.178 h -15.834 c -0.459,0 -0.834,0.375 -0.834,0.833 v 15.833 c 0,0.917 0.531,1.136 1.18,0.488 l 5.041,-5.042 8.721,8.721 5.893,-5.892 -8.721,-8.721 5.042,-5.042 z"
           id="path7534" />
        <path
           style="fill:#333333"
           inkscape:connector-curvature="0"
           d="m 564.136,161.493 c 0.916,0 1.135,-0.531 0.488,-1.178 l -5.043,-5.042 8.721,-8.721 -5.893,-5.892 -8.721,8.721 -5.041,-5.042 c -0.648,-0.648 -1.18,-0.428 -1.18,0.488 v 15.833 c 0,0.459 0.375,0.833 0.834,0.833 h 15.835 z"
           id="path7536" />
        <path
           style="fill:#333333"
           inkscape:connector-curvature="0"
           d="m 592.468,117.326 c 0,-0.459 -0.373,-0.833 -0.832,-0.833 h -15.834 c -0.916,0 -1.137,0.531 -0.488,1.178 l 5.043,5.042 -8.721,8.721 5.891,5.892 8.721,-8.721 5.043,5.042 c 0.648,0.648 1.178,0.428 1.178,-0.488 v -15.833 z"
           id="path7538" />
        <path
           style="fill:#333333"
           inkscape:connector-curvature="0"
           d="m 591.636,161.493 c 0.459,0 0.832,-0.375 0.832,-0.833 v -15.833 c 0,-0.917 -0.529,-1.136 -1.178,-0.488 l -5.043,5.042 -8.721,-8.721 -5.891,5.892 8.721,8.721 -5.043,5.042 c -0.648,0.647 -0.428,1.178 0.488,1.178 h 15.835 z"
           id="path7540" />
      </g>
    </g>
  </g>
</svg>
