<?xml version="1.0" encoding="UTF-8" standalone="no"?>
<!-- Created with Inkscape (http://www.inkscape.org/) -->

<svg
   xmlns:dc="http://purl.org/dc/elements/1.1/"
   xmlns:cc="http://creativecommons.org/ns#"
   xmlns:rdf="http://www.w3.org/1999/02/22-rdf-syntax-ns#"
   xmlns:svg="http://www.w3.org/2000/svg"
   xmlns="http://www.w3.org/2000/svg"
   xmlns:sodipodi="http://sodipodi.sourceforge.net/DTD/sodipodi-0.dtd"
   xmlns:inkscape="http://www.inkscape.org/namespaces/inkscape"
   width="32px"
   height="32px"
   id="svg3006"
   version="1.1"
   inkscape:version="0.48.2 r9819"
   sodipodi:docname="Nouveau document 2">
  <defs
     id="defs3008" />
  <sodipodi:namedview
     id="base"
     pagecolor="#ffffff"
     bordercolor="#666666"
     borderopacity="1.0"
     inkscape:pageopacity="0.0"
     inkscape:pageshadow="2"
     inkscape:zoom="11.197802"
     inkscape:cx="16"
     inkscape:cy="16"
     inkscape:current-layer="layer1"
     showgrid="true"
     inkscape:grid-bbox="true"
     inkscape:document-units="px"
     inkscape:window-width="1920"
     inkscape:window-height="1056"
     inkscape:window-x="0"
     inkscape:window-y="24"
     inkscape:window-maximized="1" />
  <metadata
     id="metadata3011">
    <rdf:RDF>
      <cc:Work
         rdf:about="">
        <dc:format>image/svg+xml</dc:format>
        <dc:type
           rdf:resource="http://purl.org/dc/dcmitype/StillImage" />
        <dc:title></dc:title>
      </cc:Work>
    </rdf:RDF>
  </metadata>
  <g
     id="layer1"
     inkscape:label="Layer 1"
     inkscape:groupmode="layer">
    <g
       transform="matrix(0.66666491,0,0,0.66666491,-84.973391,-314.55242)"
       id="Home">
      <g
         id="g8066">
        <g
           id="g8068">
          <path
             style="fill:#333333"
             inkscape:connector-curvature="0"
             d="m 170.351,504.021 c -0.343,0.365 -0.922,0.385 -1.288,0.043 L 150.392,486.63 c -0.365,-0.342 -0.966,-0.342 -1.332,0 l -18.204,16.97 c -0.367,0.344 -0.945,0.322 -1.287,-0.045 l -1.865,-2 c -0.342,-0.365 -0.321,-0.945 0.045,-1.287 l 21.313,-19.869 c 0.367,-0.342 0.967,-0.342 1.334,0.002 l 21.777,20.334 c 0.365,0.342 0.386,0.922 0.043,1.289 l -1.865,1.997 z"
             id="path8070" />
        </g>
        <g
           id="g8072">
          <path
             style="fill:#333333"
             inkscape:connector-curvature="0"
             d="m 149.725,489.777 -15.345,14.305 v 14.83 c 0,0.504 0.414,0.918 0.919,0.918 h 10.085 v -12.857 c 0,-0.504 0.414,-0.918 0.919,-0.918 h 7.347 c 0.506,0 0.918,0.414 0.918,0.918 v 12.857 h 10.119 c 0.505,0 0.918,-0.414 0.918,-0.918 v -14.307 l -15.88,-14.828 z"
             id="path8074" />
          <path
             style="fill:#333333"
             inkscape:connector-curvature="0"
             d="m 165.543,482.311 c 0,-0.506 -0.414,-0.92 -0.919,-0.92 h -5.51 c -0.505,0 -0.918,0.414 -0.918,0.92 v 1.604 l 7.347,6.918 v -8.522 z"
             id="path8076" />
        </g>
      </g>
    </g>
  </g>
</svg>
