<?xml version="1.0" encoding="UTF-8" standalone="no"?>
<!-- Created with Inkscape (http://www.inkscape.org/) -->

<svg
   xmlns:dc="http://purl.org/dc/elements/1.1/"
   xmlns:cc="http://creativecommons.org/ns#"
   xmlns:rdf="http://www.w3.org/1999/02/22-rdf-syntax-ns#"
   xmlns:svg="http://www.w3.org/2000/svg"
   xmlns="http://www.w3.org/2000/svg"
   xmlns:sodipodi="http://sodipodi.sourceforge.net/DTD/sodipodi-0.dtd"
   xmlns:inkscape="http://www.inkscape.org/namespaces/inkscape"
   width="32px"
   height="32px"
   id="svg2996"
   version="1.1"
   inkscape:version="0.48.2 r9819"
   sodipodi:docname="Nouveau document 2">
  <defs
     id="defs2998" />
  <sodipodi:namedview
     id="base"
     pagecolor="#ffffff"
     bordercolor="#666666"
     borderopacity="1.0"
     inkscape:pageopacity="0.0"
     inkscape:pageshadow="2"
     inkscape:zoom="11.197802"
     inkscape:cx="16"
     inkscape:cy="16"
     inkscape:current-layer="layer1"
     showgrid="true"
     inkscape:grid-bbox="true"
     inkscape:document-units="px"
     inkscape:window-width="1920"
     inkscape:window-height="1056"
     inkscape:window-x="0"
     inkscape:window-y="24"
     inkscape:window-maximized="1" />
  <metadata
     id="metadata3001">
    <rdf:RDF>
      <cc:Work
         rdf:about="">
        <dc:format>image/svg+xml</dc:format>
        <dc:type
           rdf:resource="http://purl.org/dc/dcmitype/StillImage" />
        <dc:title></dc:title>
      </cc:Work>
    </rdf:RDF>
  </metadata>
  <g
     id="layer1"
     inkscape:label="Layer 1"
     inkscape:groupmode="layer">
    <g
       transform="matrix(0.66666667,0,0,0.66666667,-324.852,-355.86)"
       id="Info">
      <path
         style="fill:#333333"
         inkscape:connector-curvature="0"
         d="m 509.778,536.79 c -12.427,0 -22.5,10.074 -22.5,22.5 0,12.428 10.073,22.5 22.5,22.5 12.426,0 22.5,-10.072 22.5,-22.5 0,-12.426 -10.074,-22.5 -22.5,-22.5 z m 3.749,35.66 c 0,0.516 -0.422,0.938 -0.937,0.938 h -5.625 c -0.516,0 -0.938,-0.422 -0.938,-0.938 v -15 c 0,-0.514 0.422,-0.938 0.938,-0.938 h 5.625 c 0.515,0 0.937,0.424 0.937,0.938 v 15 z m 0,-19.758 c 0,0.516 -0.422,0.938 -0.937,0.938 h -5.625 c -0.516,0 -0.938,-0.422 -0.938,-0.938 v -6.563 c 0,-0.516 0.422,-0.938 0.938,-0.938 h 5.625 c 0.515,0 0.937,0.422 0.937,0.938 v 6.563 z"
         id="path7549" />
    </g>
  </g>
</svg>
