<?xml version="1.0" encoding="UTF-8" standalone="no"?>
<!-- Created with Inkscape (http://www.inkscape.org/) -->

<svg
   xmlns:dc="http://purl.org/dc/elements/1.1/"
   xmlns:cc="http://creativecommons.org/ns#"
   xmlns:rdf="http://www.w3.org/1999/02/22-rdf-syntax-ns#"
   xmlns:svg="http://www.w3.org/2000/svg"
   xmlns="http://www.w3.org/2000/svg"
   xmlns:sodipodi="http://sodipodi.sourceforge.net/DTD/sodipodi-0.dtd"
   xmlns:inkscape="http://www.inkscape.org/namespaces/inkscape"
   width="32px"
   height="32px"
   id="svg3774"
   version="1.1"
   inkscape:version="0.48.2 r9819"
   sodipodi:docname="Nouveau document 2">
  <defs
     id="defs3776" />
  <sodipodi:namedview
     id="base"
     pagecolor="#ffffff"
     bordercolor="#666666"
     borderopacity="1.0"
     inkscape:pageopacity="0.0"
     inkscape:pageshadow="2"
     inkscape:zoom="11.197802"
     inkscape:cx="16"
     inkscape:cy="16"
     inkscape:current-layer="layer1"
     showgrid="true"
     inkscape:grid-bbox="true"
     inkscape:document-units="px"
     inkscape:window-width="1920"
     inkscape:window-height="1056"
     inkscape:window-x="0"
     inkscape:window-y="24"
     inkscape:window-maximized="1" />
  <metadata
     id="metadata3779">
    <rdf:RDF>
      <cc:Work
         rdf:about="">
        <dc:format>image/svg+xml</dc:format>
        <dc:type
           rdf:resource="http://purl.org/dc/dcmitype/StillImage" />
        <dc:title></dc:title>
      </cc:Work>
    </rdf:RDF>
  </metadata>
  <g
     id="layer1"
     inkscape:label="Layer 1"
     inkscape:groupmode="layer">
    <g
       transform="matrix(0.6666452,0,0,0.6666452,-205.04042,-395.84556)"
       id="Key">
      <g
         id="g7752">
        <g
           id="g7754">
          <path
             style="fill:#333333"
             inkscape:connector-curvature="0"
             d="m 336.734,614.769 1.322,1.322 c 0.329,-0.379 0.589,-0.836 0.783,-1.322 h -2.105 z"
             id="path7756" />
        </g>
        <path
           style="fill:#333333"
           inkscape:connector-curvature="0"
           d="m 338.778,610.616 c 0,0 -0.669,-1.309 -4.473,-5.609 -3.804,-4.299 -6.306,-6.512 -6.306,-6.512 -1.467,-1.297 -3.858,-1.287 -5.315,0.021 0,0 -5.125,4.621 -7.711,6.951 -2.586,2.328 -6.436,6.984 -6.436,6.984 -1.248,1.51 -1.293,4.018 -0.102,5.57 0,0 1.662,2.166 6.265,6.074 4.604,3.91 5.886,4.645 5.886,4.645 1.662,0.945 4.106,0.637 5.511,-0.67 l -2.938,-2.98 c -1.825,-1.855 -1.813,-4.861 0.028,-6.703 l 5.223,-5.223 c 0.896,-0.896 2.09,-1.391 3.358,-1.391 1.271,0 2.464,0.494 3.359,1.391 l 2.928,2.926 c 1.23,-1.421 1.567,-3.812 0.723,-5.474 z m -18.808,4.106 c -2.625,0 -4.751,-2.127 -4.751,-4.752 0,-2.623 2.126,-4.75 4.751,-4.75 2.623,0 4.749,2.127 4.749,4.75 0,2.625 -2.126,4.752 -4.749,4.752 z"
           id="path7758" />
        <path
           style="fill:#333333"
           inkscape:connector-curvature="0"
           d="m 352.01,635.085 -19.4,-19.4 c -0.46,-0.461 -1.218,-0.461 -1.679,0 l -0.783,0.781 20.004,19.826 v 2.527 h -2.127 l -20.113,-20.117 -2.204,2.205 c -0.462,0.461 -0.464,1.221 -0.007,1.686 l 18.078,18.346 c 0.457,0.469 1.367,0.85 2.021,0.85 h 4.082 c 0.653,0 1.343,-0.514 1.534,-1.139 l 1.088,-3.592 c 0.19,-0.623 -0.032,-1.514 -0.494,-1.973 z"
           id="path7760" />
      </g>
    </g>
  </g>
</svg>
