<?xml version="1.0" encoding="UTF-8" standalone="no"?>
<!-- Created with Inkscape (http://www.inkscape.org/) -->

<svg
   xmlns:dc="http://purl.org/dc/elements/1.1/"
   xmlns:cc="http://creativecommons.org/ns#"
   xmlns:rdf="http://www.w3.org/1999/02/22-rdf-syntax-ns#"
   xmlns:svg="http://www.w3.org/2000/svg"
   xmlns="http://www.w3.org/2000/svg"
   xmlns:sodipodi="http://sodipodi.sourceforge.net/DTD/sodipodi-0.dtd"
   xmlns:inkscape="http://www.inkscape.org/namespaces/inkscape"
   width="48px"
   height="48px"
   id="svg6005"
   version="1.1"
   inkscape:version="0.48.3.1 r9886"
   sodipodi:docname="login.svg">
  <defs
     id="defs6007" />
  <sodipodi:namedview
     id="base"
     pagecolor="#ffffff"
     bordercolor="#666666"
     borderopacity="1.0"
     inkscape:pageopacity="0.0"
     inkscape:pageshadow="2"
     inkscape:zoom="7"
     inkscape:cx="24"
     inkscape:cy="24"
     inkscape:current-layer="layer1"
     showgrid="true"
     inkscape:grid-bbox="true"
     inkscape:document-units="px"
     inkscape:window-width="1855"
     inkscape:window-height="1056"
     inkscape:window-x="65"
     inkscape:window-y="63"
     inkscape:window-maximized="1" />
  <metadata
     id="metadata6010">
    <rdf:RDF>
      <cc:Work
         rdf:about="">
        <dc:format>image/svg+xml</dc:format>
        <dc:type
           rdf:resource="http://purl.org/dc/dcmitype/StillImage" />
        <dc:title />
      </cc:Work>
    </rdf:RDF>
  </metadata>
  <g
     id="layer1"
     inkscape:label="Layer 1"
     inkscape:groupmode="layer">
    <g
       transform="translate(-5.675,-234.43435)"
       id="Power">
      <g
         id="g5917">
        <path
           style="fill:#333333"
           inkscape:connector-curvature="0"
           d="m 36.314,239.696 v 8.396 c 4.282,2.353 7.191,6.905 7.191,12.126 0,7.626 -6.203,13.829 -13.829,13.829 -7.626,0 -13.829,-6.203 -13.829,-13.829 0,-5.221 2.91,-9.773 7.191,-12.126 v -8.396 c -8.664,2.802 -14.936,10.925 -14.936,20.522 0,11.915 9.658,21.573 21.573,21.573 11.915,0 21.573,-9.658 21.573,-21.573 0.002,-9.596 -6.269,-17.72 -14.934,-20.522 z"
           id="path5919" />
        <path
           style="fill:#33bb33"
           inkscape:connector-curvature="0"
           d="m 32.998,256.706 c 0,1.218 -0.995,2.213 -2.213,2.213 h -2.217 c -1.218,0 -2.213,-0.995 -2.213,-2.213 v -17.701 c 0,-1.218 0.995,-2.213 2.213,-2.213 h 2.217 c 1.218,0 2.213,0.995 2.213,2.213 v 17.701 z"
           id="path5921" />
      </g>
    </g>
  </g>
</svg>
