<?xml version="1.0" encoding="UTF-8" standalone="no"?>
<!-- Created with Inkscape (http://www.inkscape.org/) -->

<svg
   xmlns:dc="http://purl.org/dc/elements/1.1/"
   xmlns:cc="http://creativecommons.org/ns#"
   xmlns:rdf="http://www.w3.org/1999/02/22-rdf-syntax-ns#"
   xmlns:svg="http://www.w3.org/2000/svg"
   xmlns="http://www.w3.org/2000/svg"
   xmlns:sodipodi="http://sodipodi.sourceforge.net/DTD/sodipodi-0.dtd"
   xmlns:inkscape="http://www.inkscape.org/namespaces/inkscape"
   width="48px"
   height="48px"
   id="svg5315"
   version="1.1"
   inkscape:version="0.48.2 r9819"
   sodipodi:docname="Nouveau document 48">
  <defs
     id="defs5317" />
  <sodipodi:namedview
     id="base"
     pagecolor="#ffffff"
     bordercolor="#666666"
     borderopacity="1.0"
     inkscape:pageopacity="0.0"
     inkscape:pageshadow="2"
     inkscape:zoom="7"
     inkscape:cx="24"
     inkscape:cy="24"
     inkscape:current-layer="layer1"
     showgrid="true"
     inkscape:grid-bbox="true"
     inkscape:document-units="px"
     inkscape:window-width="895"
     inkscape:window-height="641"
     inkscape:window-x="1920"
     inkscape:window-y="24"
     inkscape:window-maximized="0" />
  <metadata
     id="metadata5320">
    <rdf:RDF>
      <cc:Work
         rdf:about="">
        <dc:format>image/svg+xml</dc:format>
        <dc:type
           rdf:resource="http://purl.org/dc/dcmitype/StillImage" />
        <dc:title></dc:title>
      </cc:Work>
    </rdf:RDF>
  </metadata>
  <g
     id="layer1"
     inkscape:label="Layer 1"
     inkscape:groupmode="layer">
    <g
       transform="translate(-186.06581,-175.1105)"
       id="My_places"
       style="color:#000000;fill:#000000;fill-opacity:1;fill-rule:nonzero;stroke-width:1;stroke-linecap:butt;stroke-linejoin:miter;stroke-miterlimit:4;stroke-opacity:1;stroke-dasharray:none;stroke-dashoffset:0;marker:none;visibility:visible;display:inline;overflow:visible;enable-background:accumulate">
      <g
         id="g1174"
         style="color:#000000;fill:#000000;fill-opacity:1;fill-rule:nonzero;stroke-width:1;stroke-linecap:butt;stroke-linejoin:miter;stroke-miterlimit:4;stroke-opacity:1;stroke-dasharray:none;stroke-dashoffset:0;marker:none;visibility:visible;display:inline;overflow:visible;enable-background:accumulate">
        <circle
           d="m 205.15699,184.595 c 0,3.56279 -2.88821,6.451 -6.451,6.451 -3.56279,0 -6.451,-2.88821 -6.451,-6.451 0,-3.56279 2.88821,-6.451 6.451,-6.451 3.56279,0 6.451,2.88821 6.451,6.451 z"
           sodipodi:ry="6.4510002"
           sodipodi:rx="6.4510002"
           sodipodi:cy="184.595"
           sodipodi:cx="198.70599"
           cx="198.70599"
           cy="184.595"
           r="6.4510002"
           id="circle1176"
           style="color:#000000;fill:#000000;fill-opacity:1;fill-rule:nonzero;stroke-width:1;stroke-linecap:butt;stroke-linejoin:miter;stroke-miterlimit:4;stroke-opacity:1;stroke-dasharray:none;stroke-dashoffset:0;marker:none;visibility:visible;display:inline;overflow:visible;enable-background:accumulate" />
        <path
           inkscape:connector-curvature="0"
           d="m 229.84,178.144 c -1.971,0 -5.959,3.227 -8.289,3.227 -1.918,0 -4.316,-1.455 -5.105,-1.97 v -0.719 c 0,-0.891 -0.723,-1.612 -1.611,-1.612 -0.893,0 -1.613,0.723 -1.613,1.612 v 18.229 c -0.523,-0.099 -1.113,-0.346 -1.467,-0.64 l -4.049,-3.376 c -0.455,-0.38 -1.277,-0.863 -1.828,-1.079 l -1.053,-0.081 c -0.578,0.129 -1.465,0.48 -1.973,0.786 l -0.205,0.122 c -0.508,0.305 -1.322,0.825 -1.811,1.159 0,0 -0.688,0.47 -2.131,0.47 -1.445,0 -2.133,-0.47 -2.133,-0.47 -0.484,-0.334 -1.301,-0.854 -1.809,-1.159 l -0.205,-0.122 c -0.508,-0.306 -1.387,-0.691 -1.951,-0.859 0,0 -0.686,-0.203 -1.496,0.177 -0.811,0.381 -1.09,1.036 -1.09,1.036 -0.232,0.544 -0.5,1.467 -0.592,2.051 l -1.846,11.724 c -0.094,0.585 0.313,1.123 0.898,1.195 l 2.166,0.271 c 0.588,0.074 1.066,0.617 1.066,1.209 v 10.751 c 0,0.591 0.482,1.075 1.076,1.075 h 3.225 c 0.592,0 1.074,-0.484 1.074,-1.075 v -7.526 c 0,-0.591 0.484,-1.073 1.076,-1.073 h 1.611 c 0.592,0 1.076,0.482 1.076,1.073 v 7.526 c 0,0.591 0.482,1.075 1.074,1.075 h 3.225 c 0.592,0 1.076,-0.484 1.076,-1.075 v -9.945 c 0,-0.591 0,-1.136 0,-1.209 0,-0.072 0,-0.618 0,-1.21 v -7.969 c 0,-0.592 0.371,-0.767 0.824,-0.388 l 2.004,1.67 c 0.455,0.379 1.072,0.828 1.373,1.001 0.299,0.171 1.658,0.311 2.25,0.311 h 0.537 v 17.201 c 0,0.891 0.723,1.613 1.613,1.613 0.889,0 1.611,-0.724 1.611,-1.613 v -28.295 c 0.758,0.528 3.006,1.955 5.195,1.955 2.688,0 6.541,-3.227 8.199,-3.227 1.656,0 2.73,1.075 2.73,1.075 V 179.22 c 0.011,-0.001 -0.751,-1.076 -2.722,-1.076 z"
           id="path1178"
           style="color:#000000;fill:#000000;fill-opacity:1;fill-rule:nonzero;stroke-width:1;stroke-linecap:butt;stroke-linejoin:miter;stroke-miterlimit:4;stroke-opacity:1;stroke-dasharray:none;stroke-dashoffset:0;marker:none;visibility:visible;display:inline;overflow:visible;enable-background:accumulate" />
      </g>
    </g>
  </g>
</svg>
