<?xml version="1.0" encoding="UTF-8" standalone="no"?>
<!-- Created with Inkscape (http://www.inkscape.org/) -->

<svg
   xmlns:dc="http://purl.org/dc/elements/1.1/"
   xmlns:cc="http://creativecommons.org/ns#"
   xmlns:rdf="http://www.w3.org/1999/02/22-rdf-syntax-ns#"
   xmlns:svg="http://www.w3.org/2000/svg"
   xmlns="http://www.w3.org/2000/svg"
   xmlns:sodipodi="http://sodipodi.sourceforge.net/DTD/sodipodi-0.dtd"
   xmlns:inkscape="http://www.inkscape.org/namespaces/inkscape"
   width="32px"
   height="32px"
   id="svg2996"
   version="1.1"
   inkscape:version="0.48.2 r9819"
   sodipodi:docname="Nouveau document 2">
  <defs
     id="defs2998" />
  <sodipodi:namedview
     id="base"
     pagecolor="#ffffff"
     bordercolor="#666666"
     borderopacity="1.0"
     inkscape:pageopacity="0.0"
     inkscape:pageshadow="2"
     inkscape:zoom="11.197802"
     inkscape:cx="16"
     inkscape:cy="16"
     inkscape:current-layer="layer1"
     showgrid="true"
     inkscape:grid-bbox="true"
     inkscape:document-units="px"
     inkscape:window-width="1920"
     inkscape:window-height="1056"
     inkscape:window-x="0"
     inkscape:window-y="24"
     inkscape:window-maximized="1" />
  <metadata
     id="metadata3001">
    <rdf:RDF>
      <cc:Work
         rdf:about="">
        <dc:format>image/svg+xml</dc:format>
        <dc:type
           rdf:resource="http://purl.org/dc/dcmitype/StillImage" />
        <dc:title></dc:title>
      </cc:Work>
    </rdf:RDF>
  </metadata>
  <g
     id="layer1"
     inkscape:label="Layer 1"
     inkscape:groupmode="layer">
    <g
       transform="matrix(0.66666667,0,0,0.66666667,-205.048,-33.771868)"
       id="Notification">
      <path
         style="fill:#333333"
         inkscape:connector-curvature="0"
         d="m 343.918,60.58 h -27.692 c -4.76,0 -8.654,3.926 -8.654,8.724 v 12.214 c 0,4.797 3.895,8.724 8.654,8.724 h 16.088 l 9.598,7.937 c 1.104,0.912 2.007,0.482 2.007,-0.957 v -6.979 c 4.76,0 8.653,-3.927 8.653,-8.724 V 69.303 c -10e-4,-4.798 -3.894,-8.723 -8.654,-8.723 z m -11.25,25.095 c 0,0.952 -0.778,1.73 -1.731,1.73 h -1.73 c -0.951,0 -1.73,-0.778 -1.73,-1.73 v -3.461 c 0,-0.953 0.779,-1.731 1.73,-1.731 h 1.73 c 0.953,0 1.731,0.778 1.731,1.731 v 3.461 z m 0,-10.384 c 0,0.952 -0.778,1.73 -1.731,1.73 h -1.73 c -0.951,0 -1.73,-0.778 -1.73,-1.73 V 64.906 c 0,-0.951 0.779,-1.73 1.73,-1.73 h 1.73 c 0.953,0 1.731,0.779 1.731,1.73 v 10.385 z"
         id="path7853" />
    </g>
  </g>
</svg>
