<?xml version="1.0" encoding="UTF-8" standalone="no"?>
<!-- Created with Inkscape (http://www.inkscape.org/) -->

<svg
   xmlns:dc="http://purl.org/dc/elements/1.1/"
   xmlns:cc="http://creativecommons.org/ns#"
   xmlns:rdf="http://www.w3.org/1999/02/22-rdf-syntax-ns#"
   xmlns:svg="http://www.w3.org/2000/svg"
   xmlns="http://www.w3.org/2000/svg"
   xmlns:sodipodi="http://sodipodi.sourceforge.net/DTD/sodipodi-0.dtd"
   xmlns:inkscape="http://www.inkscape.org/namespaces/inkscape"
   width="32px"
   height="32px"
   id="svg2996"
   version="1.1"
   inkscape:version="0.48.2 r9819"
   sodipodi:docname="Nouveau document 2">
  <defs
     id="defs2998" />
  <sodipodi:namedview
     id="base"
     pagecolor="#ffffff"
     bordercolor="#666666"
     borderopacity="1.0"
     inkscape:pageopacity="0.0"
     inkscape:pageshadow="2"
     inkscape:zoom="11.197802"
     inkscape:cx="16"
     inkscape:cy="16"
     inkscape:current-layer="layer1"
     showgrid="true"
     inkscape:grid-bbox="true"
     inkscape:document-units="px"
     inkscape:window-width="1920"
     inkscape:window-height="1056"
     inkscape:window-x="0"
     inkscape:window-y="24"
     inkscape:window-maximized="1" />
  <metadata
     id="metadata3001">
    <rdf:RDF>
      <cc:Work
         rdf:about="">
        <dc:format>image/svg+xml</dc:format>
        <dc:type
           rdf:resource="http://purl.org/dc/dcmitype/StillImage" />
        <dc:title></dc:title>
      </cc:Work>
    </rdf:RDF>
  </metadata>
  <g
     id="layer1"
     inkscape:label="Layer 1"
     inkscape:groupmode="layer">
    <g
       transform="matrix(0.66666281,0,0,0.66666281,-284.89408,-275.69699)"
       id="Phone">
      <path
         style="fill:#334a54;fill-rule:evenodd"
         inkscape:connector-curvature="0"
         clip-rule="evenodd"
         d="m 471.947,425.372 c 0,0 -5.597,-7.937 -10.949,-7.937 -4.048,0 -7.405,0.492 -14.099,5.968 -3.778,3.001 -4.146,3.464 -5.17,4.441 -11.02,10.518 -14.226,16.738 -14.383,22.09 -0.159,5.35 7.609,11.178 7.609,11.178 0.965,0.727 2.344,0.523 3.061,-0.447 l 6.127,-8.291 c 0.717,-0.971 0.607,-2.467 -0.244,-3.322 0,0 -0.386,-0.355 -3.248,-3.391 -2.86,-3.037 0.854,-6.539 0.854,-6.539 l 3.018,-3.113 c 0.193,-0.145 0.378,-0.291 0.531,-0.432 l 4.718,-4.311 c 0,0 3.611,-3.607 6.562,-0.658 2.95,2.951 3.293,3.348 3.293,3.348 0.83,0.877 2.321,1.031 3.313,0.342 l 8.47,-5.879 c 0.99,-0.688 1.232,-2.059 0.537,-3.047 z"
         id="path7631" />
    </g>
  </g>
</svg>
