<?xml version="1.0" encoding="UTF-8" standalone="no"?>
<!-- Created with Inkscape (http://www.inkscape.org/) -->

<svg
   xmlns:dc="http://purl.org/dc/elements/1.1/"
   xmlns:cc="http://creativecommons.org/ns#"
   xmlns:rdf="http://www.w3.org/1999/02/22-rdf-syntax-ns#"
   xmlns:svg="http://www.w3.org/2000/svg"
   xmlns="http://www.w3.org/2000/svg"
   xmlns:sodipodi="http://sodipodi.sourceforge.net/DTD/sodipodi-0.dtd"
   xmlns:inkscape="http://www.inkscape.org/namespaces/inkscape"
   width="32px"
   height="32px"
   id="svg3000"
   version="1.1"
   inkscape:version="0.48.2 r9819"
   sodipodi:docname="refresh.svg">
  <defs
     id="defs3002" />
  <sodipodi:namedview
     id="base"
     pagecolor="#ffffff"
     bordercolor="#666666"
     borderopacity="1.0"
     inkscape:pageopacity="0.0"
     inkscape:pageshadow="2"
     inkscape:zoom="11.197802"
     inkscape:cx="16"
     inkscape:cy="5.2836112"
     inkscape:current-layer="layer1"
     showgrid="true"
     inkscape:grid-bbox="true"
     inkscape:document-units="px"
     inkscape:window-width="1366"
     inkscape:window-height="744"
     inkscape:window-x="0"
     inkscape:window-y="24"
     inkscape:window-maximized="1" />
  <metadata
     id="metadata3005">
    <rdf:RDF>
      <cc:Work
         rdf:about="">
        <dc:format>image/svg+xml</dc:format>
        <dc:type
           rdf:resource="http://purl.org/dc/dcmitype/StillImage" />
        <dc:title />
      </cc:Work>
    </rdf:RDF>
  </metadata>
  <g
     id="layer1"
     inkscape:label="Layer 1"
     inkscape:groupmode="layer">
    <g
       transform="matrix(0.66665185,0,0,0.75403408,-324.84478,-43.033932)"
       id="Refresh">
      <g
         id="g7601">
        <path
           style="fill:#333333"
           inkscape:connector-curvature="0"
           d="m 528.054,71.68 c -3.166,-7.28 -10.25,-11.956 -18.232,-11.956 -8.164,0 -15.625,5.116 -18.564,12.729 l 6.188,2.39 c 1.959,-5.077 6.934,-8.486 12.377,-8.486 5.251,0 9.9,3.048 12.05,7.791 l -4.514,1.804 11.543,6.66 3.377,-12.617 -4.225,1.685 z"
           id="path7603" />
        <path
           style="fill:#333333"
           inkscape:connector-curvature="0"
           d="m 509.822,92.88 c -5.205,0 -9.952,-3.14 -12.074,-7.853 l 4.45,-1.721 -11.423,-6.515 -3.497,12.281 4.26,-1.646 c 3.106,7.252 10.357,12.084 18.284,12.084 8.193,0 15.449,-4.917 18.484,-12.524 l -6.158,-2.457 c -2.026,5.073 -6.862,8.351 -12.326,8.351 z"
           id="path7605" />
      </g>
    </g>
  </g>
</svg>
