<?xml version="1.0" encoding="UTF-8" standalone="no"?>
<!-- Created with Inkscape (http://www.inkscape.org/) -->

<svg
   xmlns:dc="http://purl.org/dc/elements/1.1/"
   xmlns:cc="http://creativecommons.org/ns#"
   xmlns:rdf="http://www.w3.org/1999/02/22-rdf-syntax-ns#"
   xmlns:svg="http://www.w3.org/2000/svg"
   xmlns="http://www.w3.org/2000/svg"
   xmlns:sodipodi="http://sodipodi.sourceforge.net/DTD/sodipodi-0.dtd"
   xmlns:inkscape="http://www.inkscape.org/namespaces/inkscape"
   width="32px"
   height="32px"
   id="svg3000"
   version="1.1"
   inkscape:version="0.48.2 r9819"
   sodipodi:docname="Nouveau document 2">
  <defs
     id="defs3002" />
  <sodipodi:namedview
     id="base"
     pagecolor="#ffffff"
     bordercolor="#666666"
     borderopacity="1.0"
     inkscape:pageopacity="0.0"
     inkscape:pageshadow="2"
     inkscape:zoom="11.197802"
     inkscape:cx="16"
     inkscape:cy="16"
     inkscape:current-layer="layer1"
     showgrid="true"
     inkscape:grid-bbox="true"
     inkscape:document-units="px"
     inkscape:window-width="1920"
     inkscape:window-height="1056"
     inkscape:window-x="0"
     inkscape:window-y="24"
     inkscape:window-maximized="1" />
  <metadata
     id="metadata3005">
    <rdf:RDF>
      <cc:Work
         rdf:about="">
        <dc:format>image/svg+xml</dc:format>
        <dc:type
           rdf:resource="http://purl.org/dc/dcmitype/StillImage" />
        <dc:title></dc:title>
      </cc:Work>
    </rdf:RDF>
  </metadata>
  <g
     id="layer1"
     inkscape:label="Layer 1"
     inkscape:groupmode="layer">
    <g
       transform="matrix(0.66666667,0,0,0.67902487,-445.316,-37.062263)"
       id="Share">
      <g
         id="g7429">
        <circle
           d="m 699.43601,92.592003 c 0,5.034628 -4.08137,9.115997 -9.116,9.115997 -5.03463,0 -9.116,-4.081369 -9.116,-9.115997 0,-5.034628 4.08137,-9.116 9.116,-9.116 5.03463,0 9.116,4.081372 9.116,9.116 z"
           style="fill:#333333"
           sodipodi:ry="9.1160002"
           sodipodi:rx="9.1160002"
           sodipodi:cy="92.592003"
           sodipodi:cx="690.32001"
           cx="690.32001"
           cy="92.592003"
           r="9.1160002"
           id="circle7431" />
        <path
           style="fill:#333333"
           inkscape:connector-curvature="0"
           d="m 708.548,57.527 -17.537,7.397 5.012,2.558 -5.549,10.741 -5.551,-10.741 5.012,-2.558 -17.537,-7.397 -4.424,18.603 4.924,-2.513 6.27,12.139 c 2.305,-3.75 6.43,-6.258 11.152,-6.258 4.838,0 9.051,2.63 11.318,6.528 l 6.41,-12.409 4.926,2.513 -4.426,-18.603 z"
           id="path7433" />
      </g>
    </g>
  </g>
</svg>
