<?xml version="1.0" encoding="UTF-8" standalone="no"?>
<!-- Created with Inkscape (http://www.inkscape.org/) -->

<svg
   xmlns:dc="http://purl.org/dc/elements/1.1/"
   xmlns:cc="http://creativecommons.org/ns#"
   xmlns:rdf="http://www.w3.org/1999/02/22-rdf-syntax-ns#"
   xmlns:svg="http://www.w3.org/2000/svg"
   xmlns="http://www.w3.org/2000/svg"
   xmlns:sodipodi="http://sodipodi.sourceforge.net/DTD/sodipodi-0.dtd"
   xmlns:inkscape="http://www.inkscape.org/namespaces/inkscape"
   width="32px"
   height="32px"
   id="svg3000"
   version="1.1"
   inkscape:version="0.48.2 r9819"
   sodipodi:docname="Nouveau document 2">
  <defs
     id="defs3002" />
  <sodipodi:namedview
     id="base"
     pagecolor="#ffffff"
     bordercolor="#666666"
     borderopacity="1.0"
     inkscape:pageopacity="0.0"
     inkscape:pageshadow="2"
     inkscape:zoom="11.197802"
     inkscape:cx="16"
     inkscape:cy="16"
     inkscape:current-layer="layer1"
     showgrid="true"
     inkscape:grid-bbox="true"
     inkscape:document-units="px"
     inkscape:window-width="1920"
     inkscape:window-height="1056"
     inkscape:window-x="0"
     inkscape:window-y="24"
     inkscape:window-maximized="1" />
  <metadata
     id="metadata3005">
    <rdf:RDF>
      <cc:Work
         rdf:about="">
        <dc:format>image/svg+xml</dc:format>
        <dc:type
           rdf:resource="http://purl.org/dc/dcmitype/StillImage" />
        <dc:title></dc:title>
      </cc:Work>
    </rdf:RDF>
  </metadata>
  <g
     id="layer1"
     inkscape:label="Layer 1"
     inkscape:groupmode="layer">
    <g
       transform="matrix(0.66666667,0,0,0.66666667,-246.908,-396.106)"
       id="Trashcan">
      <g
         id="g7672">
        <path
           style="fill:#333333"
           inkscape:connector-curvature="0"
           d="m 408.302,604.218 h -7.95 c 0.002,-0.055 0.009,-0.109 0.009,-0.166 v -1.6 c 0,-2.91 -2.384,-5.293 -5.294,-5.293 h -8.824 c -2.912,0 -5.294,2.383 -5.294,5.293 v 1.6 c 0,0.057 0.007,0.111 0.009,0.166 h -7.95 c -1.456,0 -2.646,1.191 -2.646,2.646 v 2.646 c 0,1.457 1.19,2.648 2.646,2.648 h 0.883 v -1.766 h 33.529 v 1.766 h 0.883 c 1.455,0 2.646,-1.191 2.646,-2.648 v -2.646 c -0.001,-1.455 -1.192,-2.646 -2.647,-2.646 z m -22.969,-2.647 h 10.588 v 2.646 h -10.588 v -2.646 z"
           id="path7674" />
        <path
           style="fill:#333333"
           inkscape:connector-curvature="0"
           d="m 375.654,613.042 v 26.469 c 0,1.457 1.19,2.648 2.647,2.648 h 24.705 c 1.456,0 2.647,-1.191 2.647,-2.648 v -26.469 h -29.999 z m 8.824,23.381 c 0,0.486 -0.397,0.883 -0.882,0.883 h -1.765 c -0.486,0 -0.883,-0.396 -0.883,-0.883 v -17.646 c 0,-0.484 0.396,-0.883 0.883,-0.883 h 1.765 c 0.484,0 0.882,0.398 0.882,0.883 v 17.646 z m 7.941,0 c 0,0.486 -0.398,0.883 -0.882,0.883 h -1.766 c -0.485,0 -0.882,-0.396 -0.882,-0.883 v -17.646 c 0,-0.484 0.396,-0.883 0.882,-0.883 h 1.766 c 0.483,0 0.882,0.398 0.882,0.883 v 17.646 z m 7.941,0 c 0,0.486 -0.398,0.883 -0.883,0.883 h -1.765 c -0.485,0 -0.882,-0.396 -0.882,-0.883 v -17.646 c 0,-0.484 0.396,-0.883 0.882,-0.883 h 1.765 c 0.484,0 0.883,0.398 0.883,0.883 v 17.646 z"
           id="path7676" />
      </g>
    </g>
  </g>
</svg>
