<?xml version="1.0" encoding="UTF-8" standalone="no"?>
<!-- Created with Inkscape (http://www.inkscape.org/) -->

<svg
   xmlns:dc="http://purl.org/dc/elements/1.1/"
   xmlns:cc="http://creativecommons.org/ns#"
   xmlns:rdf="http://www.w3.org/1999/02/22-rdf-syntax-ns#"
   xmlns:svg="http://www.w3.org/2000/svg"
   xmlns="http://www.w3.org/2000/svg"
   xmlns:sodipodi="http://sodipodi.sourceforge.net/DTD/sodipodi-0.dtd"
   xmlns:inkscape="http://www.inkscape.org/namespaces/inkscape"
   width="48px"
   height="48px"
   id="svg5072"
   version="1.1"
   inkscape:version="0.48.2 r9819"
   sodipodi:docname="Nouveau document 35">
  <defs
     id="defs5074" />
  <sodipodi:namedview
     id="base"
     pagecolor="#ffffff"
     bordercolor="#666666"
     borderopacity="1.0"
     inkscape:pageopacity="0.0"
     inkscape:pageshadow="2"
     inkscape:zoom="7"
     inkscape:cx="24"
     inkscape:cy="24"
     inkscape:current-layer="layer1"
     showgrid="true"
     inkscape:grid-bbox="true"
     inkscape:document-units="px"
     inkscape:window-width="615"
     inkscape:window-height="406"
     inkscape:window-x="1920"
     inkscape:window-y="24"
     inkscape:window-maximized="0" />
  <metadata
     id="metadata5077">
    <rdf:RDF>
      <cc:Work
         rdf:about="">
        <dc:format>image/svg+xml</dc:format>
        <dc:type
           rdf:resource="http://purl.org/dc/dcmitype/StillImage" />
        <dc:title></dc:title>
      </cc:Work>
    </rdf:RDF>
  </metadata>
  <g
     id="layer1"
     inkscape:label="Layer 1"
     inkscape:groupmode="layer">
    <g
       transform="translate(-244.246,-475.986)"
       id="Friendslist">
      <g
         id="g1023">
        <path
           style="fill:#335c33"
           inkscape:connector-curvature="0"
           d="m 264.955,509.953 c -0.348,0 -0.359,-0.197 -0.359,-0.689 0,-0.605 0.08,-0.938 0.08,-0.938 1.036,0 2.605,-1.734 3.109,-3.33 0.286,-0.898 1.889,-1.063 1.889,-3.443 0,-2.088 -0.922,-1.51 -0.922,-1.666 0,-0.154 0,-2.27 0,-3.51 0,-2.303 -2.057,-6.846 -8.541,-6.846 -6.486,0 -8.543,4.543 -8.543,6.846 0,1.24 0,3.355 0,3.51 0,0.156 -0.924,-0.422 -0.924,1.666 0,2.381 1.606,2.545 1.889,3.443 0.506,1.596 2.075,3.33 3.111,3.33 0,0 0.08,0.332 0.08,0.938 0,0.492 -0.012,0.689 -0.359,0.689 -5.637,0 -9.719,5.959 -9.719,7.861 0,2.432 0,2.799 0,2.799 h 14.465 14.465 c 0,0 0,-0.367 0,-2.799 0,-1.902 -4.084,-7.861 -9.721,-7.861 z"
           id="path1025" />
        <path
           style="fill:#335c33"
           inkscape:connector-curvature="0"
           d="m 267.871,490.072 c 2.048,1.838 3.025,4.289 3.025,6.305 v 1.195 h 19.85 v -7.5 h -22.875 z"
           id="path1027" />
        <path
           style="fill:#335c33"
           inkscape:connector-curvature="0"
           d="m 271.764,500.787 c 0.027,0.242 0.055,0.484 0.055,0.766 0,2.535 -1.338,3.707 -1.979,4.27 -0.035,0.031 -0.07,0.061 -0.104,0.088 -0.283,0.77 -0.768,1.619 -1.379,2.377 h 22.389 v -7.5 h -18.982 z"
           id="path1029" />
        <rect
           style="fill:#335c33"
           x="259.67499"
           y="479.35901"
           width="31.070999"
           height="7.5"
           id="rect1031" />
      </g>
    </g>
  </g>
</svg>
