<?xml version="1.0" encoding="UTF-8" standalone="no"?>
<!-- Created with Inkscape (http://www.inkscape.org/) -->

<svg
   xmlns:dc="http://purl.org/dc/elements/1.1/"
   xmlns:cc="http://creativecommons.org/ns#"
   xmlns:rdf="http://www.w3.org/1999/02/22-rdf-syntax-ns#"
   xmlns:svg="http://www.w3.org/2000/svg"
   xmlns="http://www.w3.org/2000/svg"
   xmlns:sodipodi="http://sodipodi.sourceforge.net/DTD/sodipodi-0.dtd"
   xmlns:inkscape="http://www.inkscape.org/namespaces/inkscape"
   width="48px"
   height="48px"
   id="svg5170"
   version="1.1"
   inkscape:version="0.48.2 r9819"
   sodipodi:docname="Nouveau document 40">
  <defs
     id="defs5172" />
  <sodipodi:namedview
     id="base"
     pagecolor="#ffffff"
     bordercolor="#666666"
     borderopacity="1.0"
     inkscape:pageopacity="0.0"
     inkscape:pageshadow="2"
     inkscape:zoom="7"
     inkscape:cx="24"
     inkscape:cy="24"
     inkscape:current-layer="layer1"
     showgrid="true"
     inkscape:grid-bbox="true"
     inkscape:document-units="px"
     inkscape:window-width="938"
     inkscape:window-height="776"
     inkscape:window-x="1920"
     inkscape:window-y="24"
     inkscape:window-maximized="0" />
  <metadata
     id="metadata5175">
    <rdf:RDF>
      <cc:Work
         rdf:about="">
        <dc:format>image/svg+xml</dc:format>
        <dc:type
           rdf:resource="http://purl.org/dc/dcmitype/StillImage" />
        <dc:title></dc:title>
      </cc:Work>
    </rdf:RDF>
  </metadata>
  <g
     id="layer1"
     inkscape:label="Layer 1"
     inkscape:groupmode="layer">
    <g
       transform="translate(-244.10314,-595.08857)"
       id="User">
      <g
         id="g1005">
        <path
           style="fill:#ccf"
           inkscape:connector-curvature="0"
           d="m 273.042,627.017 c -0.352,0 -0.365,-1.119 -0.365,-1.619 0,-0.615 0.081,-0.953 0.081,-0.953 1.054,0 2.648,-1.76 3.159,-3.383 0.29,-0.912 1.921,-1.078 1.921,-3.498 0,-2.119 -0.938,-1.531 -0.938,-1.689 0,-0.158 0,-2.307 0,-3.568 0,-2.338 -2.089,-6.951 -8.678,-6.951 -6.59,0 -8.677,4.613 -8.677,6.951 0,1.262 0,3.41 0,3.568 0,0.158 -0.938,-0.43 -0.938,1.689 0,2.42 1.631,2.586 1.919,3.498 0.513,1.623 2.106,3.383 3.16,3.383 0,0 0.081,0.338 0.081,0.953 0,0.5 -0.014,1.619 -0.365,1.619 -5.727,0 -10.791,6.053 -10.791,7.986 0,2.471 0,4.059 0,4.059 h 15.611 15.611 c 0,0 0,-1.588 0,-4.059 10e-4,-1.934 -5.063,-7.986 -10.791,-7.986 z"
           id="path1013" />
      </g>
    </g>
  </g>
</svg>
