<?xml version="1.0" encoding="UTF-8" standalone="no"?>
<!-- Created with Inkscape (http://www.inkscape.org/) -->

<svg
   xmlns:dc="http://purl.org/dc/elements/1.1/"
   xmlns:cc="http://creativecommons.org/ns#"
   xmlns:rdf="http://www.w3.org/1999/02/22-rdf-syntax-ns#"
   xmlns:svg="http://www.w3.org/2000/svg"
   xmlns="http://www.w3.org/2000/svg"
   xmlns:sodipodi="http://sodipodi.sourceforge.net/DTD/sodipodi-0.dtd"
   xmlns:inkscape="http://www.inkscape.org/namespaces/inkscape"
   width="32px"
   height="32px"
   id="svg2996"
   version="1.1"
   inkscape:version="0.48.2 r9819"
   sodipodi:docname="warning.svg">
  <defs
     id="defs2998" />
  <sodipodi:namedview
     id="base"
     pagecolor="#ffffff"
     bordercolor="#666666"
     borderopacity="1.0"
     inkscape:pageopacity="0.0"
     inkscape:pageshadow="2"
     inkscape:zoom="11.197802"
     inkscape:cx="16"
     inkscape:cy="16"
     inkscape:current-layer="layer1"
     showgrid="true"
     inkscape:grid-bbox="true"
     inkscape:document-units="px"
     inkscape:window-width="1366"
     inkscape:window-height="744"
     inkscape:window-x="0"
     inkscape:window-y="24"
     inkscape:window-maximized="1" />
  <metadata
     id="metadata3001">
    <rdf:RDF>
      <cc:Work
         rdf:about="">
        <dc:format>image/svg+xml</dc:format>
        <dc:type
           rdf:resource="http://purl.org/dc/dcmitype/StillImage" />
        <dc:title />
      </cc:Work>
    </rdf:RDF>
  </metadata>
  <g
     id="layer1"
     inkscape:label="Layer 1"
     inkscape:groupmode="layer">
    <g
       transform="matrix(0.66666862,0,0,0.7771618,-45.112033,-44.876069)"
       id="Warning">
      <path
         style="fill:#333333"
         inkscape:connector-curvature="0"
         d="M 111.858,93.287 93.524,62.64 C 91.67,59.542 88.639,59.543 86.789,62.641 L 68.476,93.286 c -1.851,3.098 -0.413,5.633 3.197,5.633 h 36.993 c 3.608,-10e-4 5.045,-2.535 3.192,-5.632 z M 88.2,73.367 c 0,-1.084 0.887,-1.969 1.969,-1.969 1.083,0 1.969,0.885 1.969,1.969 v 9.192 c 0,1.085 -0.886,1.969 -1.969,1.969 -1.082,0 -1.969,-0.884 -1.969,-1.969 v -9.192 z m 1.969,19.596 c -1.449,0 -2.625,-1.177 -2.625,-2.625 0,-1.451 1.176,-2.624 2.625,-2.624 1.45,0 2.625,1.173 2.625,2.624 0,1.449 -1.175,2.625 -2.625,2.625 z"
         id="path8207" />
    </g>
  </g>
</svg>
